<svg width="40" height="45" viewBox="0 0 40 45" fill="none" xmlns="http://www.w3.org/2000/svg">
<path fill-rule="evenodd" clip-rule="evenodd" d="M0.796875 6.4005C0.585247 6.40135 0.382554 6.48611 0.233203 6.63605C0.0838524 6.78598 1.57548e-05 6.98888 1.07882e-07 7.2005V32.7974C-8.708e-05 32.9653 0.0526754 33.1291 0.15083 33.2653C0.248985 33.4016 0.387549 33.5036 0.546875 33.5568L4 34.7101V37.6068C4.00005 38.0485 4.35819 38.4067 4.8 38.4067C5.24248 38.4067 5.59063 38.7543 5.59063 39.2068C5.59063 39.6595 5.2427 40.0038 4.8 40.0038C4.35819 40.0038 4.00005 40.3622 4 40.8038V44.0005C4.00046 44.545 4.5328 44.93 5.05 44.7599L17.6187 40.6443C18.1123 41.4508 18.9928 42.0005 20 42.0005C21.0072 42.0005 21.8877 41.4508 22.3813 40.6443L34.95 44.7599C35.4672 44.93 35.9995 44.545 36 44.0005V40.8038C36 40.3622 35.6418 40.0038 35.2 40.0038C34.7573 40.0038 34.4094 39.6595 34.4094 39.2068C34.4094 38.7543 34.7575 38.4067 35.2 38.4067C35.6418 38.4067 36 38.0485 36 37.6068V34.7101L39.4531 33.5568C39.6125 33.5036 39.751 33.4016 39.8492 33.2653C39.9473 33.1291 40.0001 32.9653 40 32.7974V7.2005C40 7.09331 39.9785 6.98731 39.9368 6.88859C39.895 6.78987 39.8338 6.70051 39.7569 6.62589C39.6799 6.55127 39.5888 6.49292 39.4888 6.45421C39.3889 6.41551 39.2821 6.39716 39.175 6.4005C39.104 6.40288 39.0335 6.41468 38.9656 6.43566L36.0281 7.33566C35.9269 7.36561 35.8326 7.41537 35.7506 7.48195C35.6686 7.54853 35.6006 7.63077 35.5505 7.72374C35.5005 7.81672 35.4693 7.91867 35.4588 8.02374C35.4484 8.12882 35.4588 8.23482 35.4895 8.33585C35.5202 8.43688 35.5706 8.53096 35.6378 8.61242C35.705 8.69387 35.7877 8.7611 35.8811 8.81046C35.9744 8.85983 36.0766 8.89023 36.1817 8.89992C36.2869 8.9096 36.393 8.89839 36.4938 8.86691L38.4 8.28253V32.22L22.2844 37.595C21.7757 36.8755 20.9408 36.4013 20 36.4013C19.0584 36.4013 18.2242 36.8776 17.7156 37.5984L1.6 32.22V8.28253L3.50312 8.86691C3.60392 8.8986 3.71 8.90999 3.81523 8.9005C3.92047 8.89101 4.02276 8.86085 4.11626 8.81163C4.20976 8.76242 4.29262 8.69516 4.36001 8.61378C4.4274 8.53241 4.47801 8.43845 4.50894 8.33742C4.53986 8.23639 4.55047 8.13027 4.54019 8.02511C4.5299 7.91995 4.4989 7.81784 4.44897 7.72472C4.39905 7.6316 4.3312 7.54931 4.24932 7.48253C4.16743 7.41576 4.07314 7.36582 3.97187 7.33566L1.03438 6.43566C0.957428 6.41205 0.877363 6.40022 0.796875 6.4005ZM20 38.0005C20.6722 38.0005 21.2 38.5282 21.2 39.2005C21.2 39.8727 20.6722 40.4005 20 40.4005C19.3278 40.4005 18.8 39.8727 18.8 39.2005C18.8 38.5282 19.3278 38.0005 20 38.0005Z" fill="#283842"/>
<path fill-rule="evenodd" clip-rule="evenodd" d="M7.1939 4.00101C6.98281 4.00268 6.78095 4.08769 6.63228 4.23754C6.4836 4.38738 6.40016 4.58993 6.40015 4.80101V27.2004C6.40018 27.3722 6.45553 27.5393 6.55796 27.6772C6.66039 27.8151 6.80449 27.9164 6.96895 27.9661L19.7721 31.8065C19.9219 31.8514 20.0816 31.8514 20.2314 31.8065L33.0314 27.9661C33.1959 27.9164 33.34 27.8151 33.4424 27.6772C33.5448 27.5393 33.6002 27.3722 33.6002 27.2004V4.80101C33.6002 4.67619 33.5709 4.55314 33.5148 4.44164C33.4587 4.33013 33.3773 4.23324 33.2771 4.15882C33.1769 4.08441 33.0606 4.03439 32.9376 4.01293C32.8147 3.99146 32.6884 3.99913 32.5689 4.03519L20.0002 7.80394L7.43145 4.03519C7.3545 4.01158 7.27438 4.00073 7.1939 4.00101Z" fill="#283842"/>
<path fill-rule="evenodd" clip-rule="evenodd" d="M5.60298 35.2444L17.1749 39.104L5.59985 42.8976L5.60625 41.4509C6.5363 41.1699 7.19062 40.2084 7.19062 39.2069C7.19062 38.2055 6.5738 37.3034 5.60625 36.9476L5.60298 35.2444ZM34.3967 35.2444L34.3936 36.9476C33.426 37.3034 32.8092 38.2055 32.8092 39.2069C32.8092 40.2084 33.4635 41.1701 34.3936 41.4509L34.4 42.8976L22.8218 39.104L34.3967 35.2444ZM7.9999 5.87589L19.7687 9.40713C19.9195 9.45266 20.0804 9.45266 20.2312 9.40713L32 5.87589V26.6036L20 30.2036L7.99995 26.6036L7.9999 5.87589Z" fill="#32A577"/>
<path fill-rule="evenodd" clip-rule="evenodd" d="M3.99382 0.000981413C3.78274 0.00265305 3.58088 0.0876584 3.4322 0.237505C3.28353 0.387351 3.20008 0.589895 3.20007 0.800981V29.6004C3.2001 29.7722 3.25545 29.9392 3.35789 30.0772C3.46032 30.2151 3.60442 30.3164 3.76887 30.366L19.772 35.1658C19.9218 35.2107 20.0815 35.2107 20.2314 35.1658L36.2314 30.366C36.3958 30.3164 36.5399 30.2151 36.6423 30.0772C36.7447 29.9392 36.8001 29.7722 36.8001 29.6004V0.800981C36.8001 0.676161 36.7708 0.553109 36.7147 0.441606C36.6586 0.330104 36.5772 0.233209 36.477 0.158794C36.3768 0.084379 36.2605 0.0343584 36.1376 0.0128955C36.0146 -0.00856746 35.8884 -0.000903404 35.7689 0.0351611L20.0001 4.76661L4.23137 0.0351611C4.15443 0.0115483 4.07431 0.000701662 3.99382 0.000981413ZM4.80007 1.87579L19.7689 6.36641C19.9197 6.41194 20.0806 6.41194 20.2314 6.36641L35.2001 1.87579V29.0035L20.0001 33.5658L4.80012 29.0035L4.80007 1.87579Z" fill="#283842"/>
<path fill-rule="evenodd" clip-rule="evenodd" d="M19.2001 5.60068V34.4005H20.8001V5.60068H19.2001Z" fill="#283842"/>
</svg>
